<svg width="73" height="14" viewBox="0 0 73 14" fill="none" xmlns="http://www.w3.org/2000/svg">
<path d="M0 6C0 5.17157 0.671573 4.5 1.5 4.5C2.32843 4.5 3 5.17157 3 6V8C3 8.82843 2.32843 9.5 1.5 9.5C0.671573 9.5 0 8.82843 0 8V6Z" fill="#4A5565"/>
<path d="M5 4C5 3.17157 5.67157 2.5 6.5 2.5C7.32843 2.5 8 3.17157 8 4V10C8 10.8284 7.32843 11.5 6.5 11.5C5.67157 11.5 5 10.8284 5 10V4Z" fill="#4A5565"/>
<path d="M10 1.5C10 0.671573 10.6716 0 11.5 0C12.3284 0 13 0.671573 13 1.5V12.5C13 13.3284 12.3284 14 11.5 14C10.6716 14 10 13.3284 10 12.5V1.5Z" fill="#4A5565"/>
<path d="M15 5C15 4.17157 15.6716 3.5 16.5 3.5C17.3284 3.5 18 4.17157 18 5V9C18 9.82843 17.3284 10.5 16.5 10.5C15.6716 10.5 15 9.82843 15 9V5Z" fill="#4A5565"/>
<path d="M20 3C20 2.17157 20.6716 1.5 21.5 1.5C22.3284 1.5 23 2.17157 23 3V11C23 11.8284 22.3284 12.5 21.5 12.5C20.6716 12.5 20 11.8284 20 11V3Z" fill="#4A5565"/>
<path d="M25 4C25 3.17157 25.6716 2.5 26.5 2.5C27.3284 2.5 28 3.17157 28 4V10C28 10.8284 27.3284 11.5 26.5 11.5C25.6716 11.5 25 10.8284 25 10V4Z" fill="#4A5565"/>
<path d="M30 6C30 5.17157 30.6716 4.5 31.5 4.5C32.3284 4.5 33 5.17157 33 6V8C33 8.82843 32.3284 9.5 31.5 9.5C30.6716 9.5 30 8.82843 30 8V6Z" fill="#4A5565"/>
<path d="M35 2C35 1.17157 35.6716 0.5 36.5 0.5C37.3284 0.5 38 1.17157 38 2V12C38 12.8284 37.3284 13.5 36.5 13.5C35.6716 13.5 35 12.8284 35 12V2Z" fill="#4A5565"/>
<path d="M40 5C40 4.17157 40.6716 3.5 41.5 3.5C42.3284 3.5 43 4.17157 43 5V9C43 9.82843 42.3284 10.5 41.5 10.5C40.6716 10.5 40 9.82843 40 9V5Z" fill="#4A5565"/>
<path d="M45 1.5C45 0.671573 45.6716 0 46.5 0C47.3284 0 48 0.671573 48 1.5V12.5C48 13.3284 47.3284 14 46.5 14C45.6716 14 45 13.3284 45 12.5V1.5Z" fill="#4A5565"/>
<path d="M50 4C50 3.17157 50.6716 2.5 51.5 2.5C52.3284 2.5 53 3.17157 53 4V10C53 10.8284 52.3284 11.5 51.5 11.5C50.6716 11.5 50 10.8284 50 10V4Z" fill="#4A5565"/>
<path d="M55 6C55 5.17157 55.6716 4.5 56.5 4.5C57.3284 4.5 58 5.17157 58 6V8C58 8.82843 57.3284 9.5 56.5 9.5C55.6716 9.5 55 8.82843 55 8V6Z" fill="#4A5565"/>
<path d="M60 3C60 2.17157 60.6716 1.5 61.5 1.5C62.3284 1.5 63 2.17157 63 3V11C63 11.8284 62.3284 12.5 61.5 12.5C60.6716 12.5 60 11.8284 60 11V3Z" fill="#4A5565"/>
<path d="M65 5C65 4.17157 65.6716 3.5 66.5 3.5C67.3284 3.5 68 4.17157 68 5V9C68 9.82843 67.3284 10.5 66.5 10.5C65.6716 10.5 65 9.82843 65 9V5Z" fill="#4A5565"/>
<path d="M70 4C70 3.17157 70.6716 2.5 71.5 2.5C72.3284 2.5 73 3.17157 73 4V10C73 10.8284 72.3284 11.5 71.5 11.5C70.6716 11.5 70 10.8284 70 10V4Z" fill="#4A5565"/>
</svg>
