<svg width="200" height="182.078" xmlns="http://www.w3.org/2000/svg"><g fill="none" fill-rule="evenodd"><path d="M173.81 52.928c14.464 0 26.19-11.78 26.19-26.308C200 12.09 188.274.311 173.81.311c-14.465 0-26.191 11.78-26.191 26.31 0 14.528 11.726 26.307 26.19 26.307M101.743 182.078c-11.482 0-20.79-9.352-20.79-20.89 0-11.54 9.308-20.891 20.79-20.891 26.1 0 48.502-19.544 52.113-45.458 1.593-11.424 12.104-19.39 23.471-17.79 11.372 1.599 19.3 12.159 17.708 23.586-6.47 46.429-46.577 81.443-93.292 81.443" fill="#97aef1"/><path d="M98.285 182.078c-47.427 0-87.565-35.272-93.365-82.045C3.517 88.71 11.604 78.4 22.984 77.003c11.39-1.405 21.746 6.648 23.15 17.97 3.236 26.106 25.655 45.793 52.151 45.793 11.466 0 20.763 9.247 20.763 20.656 0 11.409-9.297 20.656-20.763 20.656M26.316 52.797c14.533 0 26.316-11.818 26.316-26.398C52.632 11.82 40.849 0 26.316 0S0 11.82 0 26.4c0 14.579 11.783 26.397 26.316 26.397" fill="#425bee"/></g></svg>