<svg width="450" height="122.391" xmlns="http://www.w3.org/2000/svg"><g fill="none" fill-rule="evenodd"><path d="M215.506 32.818l16.24.03v.019l-.003 1.107v.286l-.002.66v.372l-.002.823v.449l-.002.968-.024 14.078-.002 1.537c-.004 2.567-.009 5.15-.01 7.594l-.003 1.448-.002 2.095-.001 1.334-.001.645-.002 1.838v.578l-.002 3.449c0 4.931 4.246 8.946 9.464 8.946s9.462-4.015 9.462-8.946V32.833h16.24v39.295c0 13.915-11.53 25.235-25.702 25.235-14.172 0-25.703-11.32-25.703-25.235v-.872l.002-3.158v-.596l.002-1.244v-.645l.002-1.335v-.687l.002-1.41c.01-7.869.026-17.576.037-23.619l.002-1.057.002-1.418.002-.823v-.372l.002-.948v-.256l.002-.87zm212.166-1.396c3.563 0 7.172.677 10.83 2.032 3.658 1.356 6.918 3.486 9.781 6.39l-8.207 10.454c-2.098-1.484-4.12-2.614-6.059-3.388-1.939-.775-4.055-1.161-6.345-1.161-2.037 0-3.624.356-4.77 1.066-1.145.71-1.718 1.774-1.718 3.193 0 1.485.811 2.63 2.433 3.436 1.622.809 3.865 1.76 6.727 2.856l7.538 3.001c3.88 1.549 6.87 3.711 8.97 6.485 2.1 2.776 3.148 6.357 3.148 10.746 0 2.647-.541 5.196-1.622 7.647-1.082 2.453-2.657 4.598-4.722 6.437-2.07 1.841-4.598 3.308-7.587 4.405-2.99 1.098-6.425 1.645-10.305 1.645-3.946 0-8-.726-12.165-2.178-4.167-1.452-7.937-3.726-11.308-6.824l9.352-11.422a31.288 31.288 0 007.203 4.404c2.577 1.131 5.01 1.695 7.3 1.695 2.482 0 4.277-.39 5.391-1.164 1.112-.773 1.671-1.87 1.671-3.29 0-.775-.192-1.42-.574-1.936-.382-.516-.939-.999-1.67-1.452-.731-.451-1.607-.885-2.624-1.306-1.019-.42-2.195-.888-3.53-1.404l-7.73-3.291a22.756 22.756 0 01-4.77-2.567 18.7 18.7 0 01-4.007-3.774c-1.145-1.45-2.052-3.114-2.72-4.986-.669-1.871-1.002-3.935-1.002-6.196 0-2.708.572-5.242 1.717-7.598 1.145-2.355 2.735-4.42 4.772-6.195 2.034-1.775 4.467-3.179 7.298-4.21 2.83-1.033 5.932-1.55 9.304-1.55zm-120.193-.3c14.173 0 25.704 11.32 25.704 25.235v.872l-.002 3.159v.596l-.002 1.244v.646l-.002 1.335-.001.687-.002 1.41c-.01 7.87-.026 17.577-.036 23.62l-.002 1.057-.002 1.419-.002.823v.372l-.002.947v.257l-.002.87-16.239-.031.001-.452v-.192l.002-.768v-.316l.002-1.115.003-1.345.001-1.013c.011-5.988.027-16.04.037-24.142l.002-1.408v-.687l.002-1.334v-.645l.003-1.838v-.578l.002-3.45c0-4.931-4.246-8.943-9.465-8.943-5.216 0-9.461 4.012-9.461 8.943v39.297h-16.239V56.357c0-13.915 11.53-25.235 25.7-25.235zm-125.576 1.696v48.917h23.515v13.919h-39.956V32.818zm208.51-.235v13.941H366.75v9.873h20.23v13.939h-20.23v11.229h24.62v13.94h-41.032V32.583z" fill="#f9fafb"/><path d="M116.833 35.578c9.723 0 17.605-7.918 17.605-17.684 0-9.767-7.882-17.685-17.605-17.685S99.228 8.127 99.228 17.894c0 9.766 7.882 17.684 17.605 17.684M68.39 122.39c-7.717 0-13.975-6.286-13.975-14.042s6.258-14.042 13.975-14.042c17.544 0 32.603-13.137 35.03-30.556 1.071-7.679 8.137-13.034 15.778-11.958 7.643 1.074 12.973 8.172 11.902 15.854-4.348 31.209-31.308 54.745-62.71 54.745" fill="#97aef1"/><path d="M66.066 122.39c-31.88 0-58.86-23.709-62.759-55.149C2.364 59.631 7.8 52.7 15.45 51.761c7.656-.945 14.617 4.469 15.56 12.08 2.176 17.547 17.246 30.78 35.056 30.78 7.707 0 13.957 6.216 13.957 13.885s-6.25 13.885-13.957 13.885M17.69 35.49c9.768 0 17.688-7.944 17.688-17.745C35.378 7.945 27.458 0 17.69 0S0 7.945 0 17.745 7.92 35.49 17.69 35.49" fill="#425bee"/></g></svg>